<svg xmlns="http://www.w3.org/2000/svg" viewBox="0 0 16 16" shape-rendering="crispEdges"><rect x="15" y="0" width="1" height="1" fill="#1d1d1d"/><rect x="14" y="1" width="1" height="1" fill="#1d1d1d"/><rect x="15" y="1" width="1" height="1" fill="#5cdcd6"/><rect x="13" y="2" width="1" height="1" fill="#1d1d1d"/><rect x="14" y="2" width="1" height="1" fill="#5cdcd6"/><rect x="15" y="2" width="1" height="1" fill="#3aa9b5"/><rect x="12" y="3" width="1" height="1" fill="#1d1d1d"/><rect x="13" y="3" width="1" height="1" fill="#5cdcd6"/><rect x="14" y="3" width="1" height="1" fill="#3aa9b5"/><rect x="15" y="3" width="1" height="1" fill="#236f7f"/><rect x="11" y="4" width="1" height="1" fill="#1d1d1d"/><rect x="12" y="4" width="1" height="1" fill="#5cdcd6"/><rect x="13" y="4" width="1" height="1" fill="#3aa9b5"/><rect x="14" y="4" width="1" height="1" fill="#236f7f"/><rect x="15" y="4" width="1" height="1" fill="#1d1d1d"/><rect x="10" y="5" width="1" height="1" fill="#1d1d1d"/><rect x="11" y="5" width="1" height="1" fill="#5cdcd6"/><rect x="12" y="5" width="1" height="1" fill="#3aa9b5"/><rect x="13" y="5" width="1" height="1" fill="#236f7f"/><rect x="14" y="5" width="1" height="1" fill="#1d1d1d"/><rect x="9" y="6" width="1" height="1" fill="#1d1d1d"/><rect x="10" y="6" width="1" height="1" fill="#5cdcd6"/><rect x="11" y="6" width="1" height="1" fill="#3aa9b5"/><rect x="12" y="6" width="1" height="1" fill="#236f7f"/><rect x="13" y="6" width="1" height="1" fill="#1d1d1d"/><rect x="8" y="7" width="1" height="1" fill="#1d1d1d"/><rect x="9" y="7" width="1" height="1" fill="#5cdcd6"/><rect x="10" y="7" width="1" height="1" fill="#3aa9b5"/><rect x="11" y="7" width="1" height="1" fill="#236f7f"/><rect x="12" y="7" width="1" height="1" fill="#1d1d1d"/><rect x="7" y="8" width="1" height="1" fill="#1d1d1d"/><rect x="8" y="8" width="1" height="1" fill="#5cdcd6"/><rect x="9" y="8" width="1" height="1" fill="#3aa9b5"/><rect x="10" y="8" width="1" height="1" fill="#236f7f"/><rect x="11" y="8" width="1" height="1" fill="#1d1d1d"/><rect x="6" y="9" width="1" height="1" fill="#1d1d1d"/><rect x="7" y="9" width="1" height="1" fill="#5cdcd6"/><rect x="8" y="9" width="1" height="1" fill="#3aa9b5"/><rect x="9" y="9" width="1" height="1" fill="#236f7f"/><rect x="10" y="9" width="1" height="1" fill="#1d1d1d"/><rect x="2" y="10" width="1" height="1" fill="#1d1d1d"/><rect x="3" y="10" width="1" height="1" fill="#553a1a"/><rect x="5" y="10" width="1" height="1" fill="#1d1d1d"/><rect x="6" y="10" width="1" height="1" fill="#3aa9b5"/><rect x="7" y="10" width="1" height="1" fill="#5cdcd6"/><rect x="8" y="10" width="1" height="1" fill="#236f7f"/><rect x="9" y="10" width="1" height="1" fill="#1d1d1d"/><rect x="1" y="11" width="1" height="1" fill="#1d1d1d"/><rect x="2" y="11" width="1" height="1" fill="#553a1a"/><rect x="3" y="11" width="1" height="1" fill="#c9a86a"/><rect x="4" y="11" width="1" height="1" fill="#1d1d1d"/><rect x="5" y="11" width="1" height="1" fill="#3aa9b5"/><rect x="6" y="11" width="1" height="1" fill="#5cdcd6"/><rect x="7" y="11" width="1" height="1" fill="#236f7f"/><rect x="8" y="11" width="1" height="1" fill="#1d1d1d"/><rect x="0" y="12" width="1" height="1" fill="#1d1d1d"/><rect x="1" y="12" width="1" height="1" fill="#553a1a"/><rect x="2" y="12" width="1" height="1" fill="#c9a86a"/><rect x="3" y="12" width="1" height="1" fill="#553a1a"/><rect x="4" y="12" width="1" height="1" fill="#1d1d1d"/><rect x="5" y="12" width="1" height="1" fill="#8a5a2e"/><rect x="6" y="12" width="1" height="1" fill="#236f7f"/><rect x="7" y="12" width="1" height="1" fill="#1d1d1d"/><rect x="1" y="13" width="1" height="1" fill="#1d1d1d"/><rect x="2" y="13" width="1" height="1" fill="#553a1a"/><rect x="3" y="13" width="1" height="1" fill="#c9a86a"/><rect x="4" y="13" width="2" height="1" fill="#8a5a2e"/><rect x="6" y="13" width="1" height="1" fill="#b88a4f"/><rect x="7" y="13" width="1" height="1" fill="#1d1d1d"/><rect x="2" y="14" width="1" height="1" fill="#1d1d1d"/><rect x="3" y="14" width="1" height="1" fill="#553a1a"/><rect x="4" y="14" width="1" height="1" fill="#c9a86a"/><rect x="5" y="14" width="1" height="1" fill="#8a5a2e"/><rect x="6" y="14" width="1" height="1" fill="#b88a4f"/><rect x="7" y="14" width="1" height="1" fill="#1d1d1d"/><rect x="3" y="15" width="1" height="1" fill="#1d1d1d"/><rect x="4" y="15" width="3" height="1" fill="#553a1a"/><rect x="7" y="15" width="1" height="1" fill="#1d1d1d"/></svg>